<?xml version="1.0" encoding="UTF-8"?>
<!-- This file is generated by npm run build:icons -->
<svg xmlns="http://www.w3.org/2000/svg" xmlns:xlink="http://www.w3.org/1999/xlink" width="0" height="0">
    <defs>
        <symbol id='arrow-up' viewBox="0 0 24 24" fill="none" stroke="currentColor" stroke-width="2" stroke-linecap="round" stroke-linejoin="round" aria-hidden="true">
            <path d="m5 12 7-7 7 7"></path>
            <path d="M12 19V5"></path>
        </symbol>
        <svg id='upload' fill="none" viewBox="0 0 16 16">
            <g clip-path="url(#a)">
                <path clip-rule="evenodd" d="M14.5 2.5h-13v6.69l1.47-1.47.22-.22h3.75l.03-.03 3.5-3.5h1.06l2.97 2.97V2.5ZM8 8.56l1.53 1.53.53.53L9 11.68l-.53-.53L6.32 9H3.81l-2.28 2.28-.03.03v1.19a1 1 0 0 0 1 1h11a1 1 0 0 0 1-1V9.06L11 5.56 8.03 8.53 8 8.56Zm-8 2.25v1.69A2.5 2.5 0 0 0 2.5 15h11a2.5 2.5 0 0 0 2.5-2.5V9.56l.56-.56-.53-.53-.03-.03V1H0v9.69l-.06.06.06.06Z" fill="currentColor" fill-rule="evenodd"></path>
            </g>
            <defs>
                <clipPath id="a">
                    <path d="M0 0h16v16H0z" fill="currentColor"></path>
                </clipPath>
            </defs>
        </svg>
    </defs>
</svg>
