<?xml version="1.0" encoding="UTF-8"?>

<svg xmlns="http://www.w3.org/2000/svg" xmlns:xlink="http://www.w3.org/1999/xlink" width="0" height="0">
    <defs>
        <symbol id="arrow-up" viewBox="0 0 24 24" fill="none" stroke="currentColor" stroke-width="2" stroke-linecap="round" stroke-linejoin="round" aria-hidden="true">
            <path d="M5 12L12 5l7 7"></path>
            <path d="M12 19V5"></path>
        </symbol>

        <svg id="upload" fill="none" viewBox="0 0 16 16">
            <g clip-path="url(#a)">
                <path clip-rule="evenodd" d="M14.5 2.5h-13v6.69l1.47-1.47.22-.22h3.75l.03-.03 3.5-3.5h1.06l2.97 2.97V2.5ZM8 8.56l1.53 1.53.53.53L9 11.68l-.53-.53L6.32 9H3.81l-2.28 2.28-.03.03v1.19a1 1 0 0 0 1 1h11a1 1 0 0 0 1-1V9.06L11 5.56 8.03 8.53 8 8.56Zm-8 2.25v1.69A2.5 2.5 0 0 0 2.5 15h11a2.5 2.5 0 0 0 2.5-2.5V9.56l.56-.56-.53-.53-.03-.03V1H0v9.69l-.06.06.06.06Z" fill="currentColor" fill-rule="evenodd"></path>
            </g>
            <defs>
                <clipPath id="a">
                    <path d="M0 0h16v16H0z" fill="currentColor"></path>
                </clipPath>
            </defs>
        </svg>

        <symbol id="close" fill="currentColor" viewBox="0 0 256 256">
            <path d="M205.66 194.34a8 8 0 0 1-11.32 11.32L128 139.31l-66.34 66.35a8 8 0 0 1-11.32-11.32L116.69 128 50.34 61.66a8 8 0 0 1 11.32-11.32L128 116.69l66.34-66.35a8 8 0 0 1 11.32 11.32L139.31 128Z"></path>
        </symbol>

        <symbol id="mint" width="15" height="15" viewBox="0 0 15 15" fill="none">
            <path d="M3.64645 11.3536C3.45118 11.1583 3.45118 10.8417 3.64645 10.6465L10.2929 4L6 4C5.72386 4 5.5 3.77614 5.5 3.5C5.5 3.22386 5.72386 3 6 3L11.5 3C11.6326 3 11.7598 3.05268 11.8536 3.14645C11.9473 3.24022 12 3.36739 12 3.5L12 9.00001C12 9.27615 11.7761 9.50001 11.5 9.50001C11.2239 9.50001 11 9.27615 11 9.00001V4.70711L4.35355 11.3536C4.15829 11.5488 3.84171 11.5488 3.64645 11.3536Z" fill="currentColor" fill-rule="evenodd" clip-rule="evenodd"/>
        </symbol>
    </defs>
</svg>
